<?xml version="1.0" standalone="no"?><svg xmlns="http://www.w3.org/2000/svg" viewBox="0 0 1440 320"><path fill="#F1F5F9" fill-opacity="1" d="M0,128L24,144C48,160,96,192,144,176C192,160,240,96,288,69.3C336,43,384,53,432,96C480,139,528,213,576,234.7C624,256,672,224,720,218.7C768,213,816,235,864,202.7C912,171,960,85,1008,69.3C1056,53,1104,107,1152,149.3C1200,192,1248,224,1296,234.7C1344,245,1392,235,1416,229.3L1440,224L1440,0L1416,0C1392,0,1344,0,1296,0C1248,0,1200,0,1152,0C1104,0,1056,0,1008,0C960,0,912,0,864,0C816,0,768,0,720,0C672,0,624,0,576,0C528,0,480,0,432,0C384,0,336,0,288,0C240,0,192,0,144,0C96,0,48,0,24,0L0,0Z"></path></svg>