<?xml version="1.0" standalone="no"?><svg xmlns="http://www.w3.org/2000/svg" viewBox="0 0 1440 320"><path fill="#fff" fill-opacity="1" d="M0,192L24,202.7C48,213,96,235,144,202.7C192,171,240,85,288,69.3C336,53,384,107,432,122.7C480,139,528,117,576,138.7C624,160,672,224,720,218.7C768,213,816,139,864,122.7C912,107,960,149,1008,160C1056,171,1104,149,1152,170.7C1200,192,1248,256,1296,261.3C1344,267,1392,213,1416,186.7L1440,160L1440,0L1416,0C1392,0,1344,0,1296,0C1248,0,1200,0,1152,0C1104,0,1056,0,1008,0C960,0,912,0,864,0C816,0,768,0,720,0C672,0,624,0,576,0C528,0,480,0,432,0C384,0,336,0,288,0C240,0,192,0,144,0C96,0,48,0,24,0L0,0Z"></path></svg>