<?xml version="1.0" standalone="no"?><svg xmlns="http://www.w3.org/2000/svg" viewBox="0 0 1440 320"><path fill="#F26D1E" fill-opacity="1" d="M0,128L34.3,112C68.6,96,137,64,206,80C274.3,96,343,160,411,160C480,160,549,96,617,69.3C685.7,43,754,53,823,80C891.4,107,960,149,1029,160C1097.1,171,1166,149,1234,165.3C1302.9,181,1371,235,1406,261.3L1440,288L1440,0L1405.7,0C1371.4,0,1303,0,1234,0C1165.7,0,1097,0,1029,0C960,0,891,0,823,0C754.3,0,686,0,617,0C548.6,0,480,0,411,0C342.9,0,274,0,206,0C137.1,0,69,0,34,0L0,0Z"></path></svg>